<svg xmlns="http://www.w3.org/2000/svg" width="41" height="33" viewBox="0 0 41 33">
    <g fill="none" fill-rule="evenodd">
        <path fill="#FFF" d="M1.739 2.851v24.55c0 2.123 1.737 3.843 3.88 3.843h21.668c2.143 0 3.88-1.72 3.88-3.842V2.852H1.74z"/>
        <path stroke="#1E1853" stroke-width="1.8" d="M1.739 2.851v24.55c0 2.123 1.737 3.843 3.88 3.843h21.668c2.143 0 3.88-1.72 3.88-3.842V2.852H1.74z"/>
        <path fill="#E56587" d="M1.739 11.056h29.429V2.851H1.738z"/>
        <path stroke="#1E1853" stroke-width="1.8" d="M1.739 11.056h29.429V2.851H1.738z"/>
        <path fill="#FFF" d="M11.076 6.794A1.55 1.55 0 0 1 9.52 8.336a1.55 1.55 0 0 1-1.558-1.542A1.55 1.55 0 0 1 9.52 5.252c.86 0 1.557.69 1.557 1.542M24.456 6.794a1.55 1.55 0 0 1-1.557 1.542 1.55 1.55 0 0 1-1.559-1.542A1.55 1.55 0 0 1 22.9 5.252c.86 0 1.557.69 1.557 1.542"/>
        <path fill="#1E1853" d="M7.23 0c-1.755 0-3.18 1.13-3.7 2.434h1.364C5.42 1.707 6.328 1.19 7.306 1.19c1.59 0 2.573 1.117 2.573 2.652 0 1.11-.681 2.155-1.734 2.598-.267.112-.151.546-.049.724.16.278.379.433.685.3a3.903 3.903 0 0 0 2.34-3.572C11.12 1.767 9.68 0 7.23 0M20.62 0c-1.755 0-3.18 1.13-3.7 2.434h1.364c.527-.727 1.434-1.244 2.412-1.244 1.59 0 2.573 1.117 2.573 2.652 0 1.11-.681 2.155-1.734 2.598-.267.112-.152.546-.05.724.161.278.38.433.686.3a3.903 3.903 0 0 0 2.34-3.572C24.51 1.767 23.07 0 20.619 0"/>
        <path fill="#FFF" d="M6.028 31.244h29.43c2.03 0 3.678-1.631 3.678-3.643H9.707c0 2.012-1.647 3.643-3.679 3.643"/>
        <path stroke="#1E1853" stroke-width="1.8" d="M6.028 31.244h29.43c2.03 0 3.678-1.631 3.678-3.643H9.707c0 2.012-1.647 3.643-3.679 3.643z"/>
        <path fill="#4ED5C0" d="M18.336 15.09c-1.174.258-1.754 1.537-1.754 1.537s-.578-1.28-1.753-1.537c-2.014-.44-4.78 1.933-2.59 4.92.287.395 4.343 3.91 4.343 3.91s4.057-3.515 4.347-3.91c2.187-2.987-.58-5.36-2.593-4.92"/>
    </g>
</svg>
