<?xml version="1.0" standalone="no"?>
<!DOCTYPE svg PUBLIC "-//W3C//DTD SVG 1.0//EN" "http://www.w3.org/TR/2001/REC-SVG-20010904/DTD/svg10.dtd">
<svg xmlns="http://www.w3.org/2000/svg" xmlns:xlink="http://www.w3.org/1999/xlink" id="body_1" width="110" height="136">

<g transform="matrix(0.49816853 0 0 0.49816853 0.45054922 -0)">
    <path d="M120.061 214.338C 118.669 213.704 117.109 213.537 115.612 213.862L115.612 213.862L51.7173 227.736C 49.5531 228.206 49.1524 231.123 51.1107 232.153L51.1107 232.153L96.3811 255.952C 97.1345 256.348 97.9156 256.659 98.7479 256.839C 103.594 257.883 122.388 261.05 149.239 254.518C 171.641 249.069 171.488 241.452 170.284 238.298C 169.893 237.275 168.977 236.606 167.981 236.153L167.981 236.153L120.061 214.338z" stroke="none" fill="#FFDD97" fill-rule="nonzero" />
    <path d="M122.045 211.6C 120.826 211.045 119.461 210.899 118.152 211.183L118.152 211.183L54.2567 225.057C 52.9041 225.351 52.6537 227.175 53.8776 227.818L53.8776 227.818L99.148 251.617C 99.8475 251.985 100.552 252.263 101.289 252.422C 106.036 253.445 124.691 256.6 151.383 250.107C 162.528 247.395 167.87 244.184 170.298 241.414C 171.498 240.045 171.984 238.787 172.125 237.733C 172.268 236.67 172.067 235.754 171.806 235.069C 171.538 234.368 170.876 233.83 169.964 233.415L169.964 233.415L122.045 211.6z" stroke="#741CDB" stroke-width="1.77797" fill="none" />
    <path d="M110.86 244.674L140.936 237.838C 141.466 237.718 142.026 237.84 142.426 238.207C 146.068 241.548 148.718 247.757 133.836 249.767C 121.652 251.412 114.072 249.277 110.309 247.13C 109.141 246.464 109.549 244.972 110.86 244.674z" stroke="none" fill="#FFFFFF" fill-rule="nonzero" />
    <path d="M113.799 242.31L143.875 235.474C 144.405 235.353 144.965 235.476 145.365 235.843C 149.008 239.183 151.657 245.393 136.775 247.402C 124.591 249.048 117.012 246.912 113.248 244.766C 112.081 244.1 112.488 242.608 113.799 242.31z" stroke="#741CDB" stroke-width="1.77797" stroke-linecap="square" fill="none" />
    <path d="M125.603 239.717L137.07 241.786" stroke="#741CDB" stroke-width="1.77797" stroke-linecap="square" fill="none" />
    <path d="M131.704 141.031C 131.835 135.8 131.2 134.1 129.601 130.49C 122.839 115.221 107.653 114.552 105.024 128.444C 101.53 158.583 120.886 181.79 118.377 222.283C 118.776 222.839 119.493 223.154 120.225 223.093C 120.957 223.033 121.578 222.609 121.824 221.999C 136.193 180.199 136.739 154.925 131.704 141.031z" stroke="none" fill="#7ED2E2" fill-rule="nonzero" />
    <path d="M121.202 223.79C 121.885 222.103 123.46 216.547 125.193 209.013M131.3 172.046C 132.063 163.169 132.082 154.816 130.746 148.564M128.588 192.236C 128.071 195.199 127.521 198.087 126.962 200.839" stroke="#742DDB" stroke-width="1.4765" stroke-linecap="square" fill="none" />
    <path d="M116.963 224.002C 118.575 199.897 113.287 182.019 109.461 165.137" stroke="#742DDB" stroke-width="1.4765" stroke-linecap="square" fill="none" />
    <path d="M120.592 224.248C 122.679 224.526 124.72 225.007 126.658 225.678C 131.96 227.464 135.59 230.066 134.723 231.484C 133.856 232.903 128.929 232.613 123.62 230.821C 118.312 229.029 114.65 226.43 115.517 225.012C 115.702 224.724 116.029 224.499 116.439 224.379" stroke="none" fill="#E8BF9B" fill-rule="nonzero" />
    <path d="M134.997 229.455C 135.477 229.917 135.631 230.505 135.411 231.033C 134.583 232.455 129.61 232.161 124.309 230.37C 119.008 228.578 115.338 225.978 116.205 224.56C 116.386 224.269 116.714 224.044 117.127 223.928" stroke="#742DDB" stroke-width="1.33588" stroke-linecap="square" fill="none" />
    <path d="M121.24 223.793C 123.326 224.071 125.368 224.552 127.306 225.223C 127.715 225.36 128.123 225.502 128.508 225.654" stroke="#742DDB" stroke-width="1.33588" stroke-linecap="square" fill="none" />
    <path d="M107.7 147.133C 112.356 120.134 97.1131 90.4545 81.4395 122.512C 65.7659 154.57 85.6085 183.057 76.8789 222.837C 77.2914 223.438 78.1301 223.837 79.0397 223.866C 79.9494 223.895 80.771 223.549 81.1566 222.974C 104.637 183.351 106.624 153.998 107.7 147.133z" stroke="none" fill="#7ED2E2" fill-rule="nonzero" />
    <path d="M80.7495 224.852C 84.2342 218.979 99.6288 182.263 105.87 148.051" stroke="#742DDB" stroke-width="1.4765" stroke-linecap="square" fill="none" />
    <path d="M76.4698 224.715C 81.6905 201.022 78.2895 184.438 74.6462 167.03" stroke="#742DDB" stroke-width="1.4765" stroke-linecap="square" fill="none" />
    <path d="M80.0738 225.255C 82.1151 225.703 84.0786 226.346 85.9101 227.167C 90.9329 229.369 94.1496 232.235 93.0875 233.569C 92.0255 234.903 87.1115 234.202 82.0887 232C 77.0659 229.798 73.8569 226.933 74.9113 225.598C 75.1392 225.328 75.4999 225.132 75.9273 225.047" stroke="none" fill="#E8BF9B" fill-rule="nonzero" />
    <path d="M93.6456 231.582C 94.0574 232.078 94.1182 232.673 93.8084 233.176C 92.7541 234.511 87.8251 233.802 82.81 231.601C 77.795 229.4 74.5706 226.533 75.6326 225.199C 75.8691 224.943 76.2273 224.76 76.6457 224.681" stroke="#742DDB" stroke-width="1.33588" stroke-linecap="square" fill="none" />
    <path d="M80.7872 224.861C 82.832 225.307 84.7986 225.95 86.6312 226.773C 87.0218 226.942 87.381 227.114 87.7706 227.294" stroke="#742DDB" stroke-width="1.33588" stroke-linecap="square" fill="none" />
    <path d="M116.354 92.7095C 129.316 88.8262 140.145 81.0543 146.622 68.6826C 147.57 66.8637 148.947 64.8421 150.585 63.938C 150.722 63.8656 150.812 63.7176 150.83 63.5367C 150.848 63.3558 150.792 63.162 150.678 63.0111C 150.645 62.9608 150.601 62.9215 150.552 62.8988C 150.125 62.7006 149.614 63.2993 149.212 63.0317C 149.079 62.9238 149.029 62.7234 149.1 62.582C 149.869 61.4835 150.976 60.8548 150.352 60.097C 149.728 59.3392 148.444 61.7111 148.261 60.687C 148.115 60.0274 149.052 58.8666 148.127 58.4127C 147.203 57.9588 146.513 61.6086 145.372 62.2126C 144.864 62.4879 145.031 61.2755 144.937 60.7206C 144.843 60.1657 144.378 60.0811 144.105 60.7829C 143.751 61.5023 143.672 62.3986 143.883 63.2869C 144.491 65.4659 144.164 66.981 142.033 68.4753C 136.609 72.0876 127.137 76.0908 120.872 77.7694C 118.961 78.2528 116.962 78.4203 114.928 78.2675C 112.978 78.0268 109.043 76.9846 107.112 74.4241C 103.402 69.3773 101.094 63.2582 100.566 57.0753C 100.564 52.6379 95.2159 46.844 92.2735 44.0322C 90.2787 41.9722 87.8183 40.7207 85.3495 40.5103C 84.9889 40.4518 84.6587 40.6187 84.4817 40.9489C 83.6433 43.1015 83.7574 44.5354 83.6457 46.3583C 83.2281 52.389 86.5967 66.1483 87.1273 68.1068C 88.5952 73.4304 90.835 80.268 95.5301 86.3993C 99.1091 90.7927 101.977 93.1876 106.531 93.8486C 108.291 94.1019 111.251 94.1847 116.354 92.7095z" stroke="none" fill="#D9885D" fill-rule="nonzero" />
    <path d="M151.455 59.1974C 151.547 59.0702 151.601 58.9084 151.61 58.7316" stroke="#742DDB" stroke-width="2.03085" stroke-linecap="square" fill="none" />
    <path d="M145.059 59.1268C 144.756 59.8013 144.701 60.6251 144.903 61.4367C 145.515 63.624 145.191 65.128 143.057 66.6334C 137.629 70.2375 128.157 74.2406 121.896 75.9275C 119.982 76.4029 117.982 76.5676 115.948 76.4173C 113.998 76.1767 110.063 75.1344 108.142 72.5794C 104.426 67.5334 102.115 61.4091 101.593 55.2224C 101.585 50.7878 96.2362 44.9938 93.2939 42.182C 90.932 39.9321 88.6876 38.7733 86.4329 38.643C 86.0724 38.5815 85.7409 38.7452 85.5615 39.0734C 84.7232 41.2259 84.8408 42.6681 84.7256 44.4828C 84.308 50.5134 87.6765 64.2728 88.2071 66.2313C 89.675 71.5548 91.9184 78.4007 96.6099 84.5237C 100.189 88.9171 103.057 91.312 107.617 91.9702C 109.354 92.2044 112.325 92.312 117.427 90.8368C 130.389 86.9534 141.218 79.1815 147.695 66.8099C 148.631 64.8278 149.988 63.2035 151.659 62.0653" stroke="#742DDB" stroke-width="1.62468" stroke-linecap="square" fill="none" />
    <path d="M149.149 56.5628C 148.604 56.2881 148.179 57.2401 147.722 58.2643" stroke="#742DDB" stroke-width="2.03085" stroke-linecap="square" fill="none" />
    <path d="M79.9055 145.004C 74.4028 144.304 71.9345 139.324 72.927 133.867C 73.4092 131.215 73.9654 128.212 74.3984 124.683C 75.8633 112.456 78.3755 97.6533 82.1768 89.7961C 84.0371 85.9484 82.8652 81.3356 84.7695 77.3923C 85.0772 76.7596 85.3555 76.1858 84.7695 75.5678C 84.2788 74.9712 84.1192 74.1669 84.3447 73.4269C 85.0259 69.8882 83.6563 67.1147 81.5908 64.3411C 80.082 62.3106 79.3936 59.5959 76.2734 59.3604C 75.9438 59.3604 75.6143 59.3604 75.2847 59.3604C 76.7056 57.3961 78.2729 55.6378 80.8291 55.3509C 81.0507 55.3263 81.2722 55.3987 81.437 55.5495C 84.7549 58.4923 88.9004 59.9637 92.7969 61.8471C 94.8018 62.8574 96.956 63.5357 99.1763 63.8555C 103.512 64.422 105.241 62.0678 103.688 57.97C 103.492 57.6371 103.568 57.21 103.867 56.9665C 104.167 56.7231 104.599 56.7368 104.882 56.9988C 112.257 62.3473 117.963 65.5476 120.644 71.3228C 123.134 76.6787 120.395 80.6073 119.596 82.0345C 118.798 83.4618 120.507 82.6307 120.541 84.867C 161.652 109.277 136.493 138.737 132.851 141.025C 127.775 143.941 95.5814 146.997 79.9055 145.004z" stroke="none" fill="#F4ECFF" fill-rule="nonzero" />
    <path d="M129.004 141.591C 136.492 136.199 140.254 128.573 140.937 120.805C 141.216 117.628 140.981 114.427 140.274 111.346M136.658 102.387C 137.475 103.736 138.184 105.152 138.781 106.616" stroke="#741CDB" stroke-width="1.77797" stroke-linecap="square" fill="none" />
    <path d="M101.218 53.8723C 100.156 53.1366 99.5266 52.4965 99.3655 50.2674C 99.3215 49.5317 99.49 49.1344 100.222 48.0603C 100.801 47.3015 101.653 46.8019 102.595 46.6698C 106.887 45.8385 109.715 45.9341 113.377 43.8889C 116.892 41.954 118.782 38.2608 119.61 34.5014C 121.074 27.8802 120.423 25.0404 121.074 18.3162C 121.162 17.3598 120.825 16.9036 119.837 16.9404C 114.988 17.1243 107.964 15.5794 101.775 15.6603C 97.4245 15.7192 97.2341 15.1159 92.9348 21.0162C 92.466 21.6636 90.4079 27.299 90.0051 26.8281C 88.8186 25.4303 87.2878 25.3568 85.5446 25.7246C 83.9699 26.0851 83.8601 27.3799 83.5598 28.8145C 83.5488 28.8827 83.5488 28.9523 83.5598 29.0205C 83.6916 32.4121 85.4055 33.4347 87.1779 34.4867C 87.9216 34.9206 88.4522 35.6455 88.6428 36.4878C 89.9099 40.0412 89.7341 42.7854 88.8698 47.3393C 88.5109 49.2153 87.1853 49.9437 86.4455 50.8192C 85.0956 52.2678 83.587 53.5586 81.9484 54.6668C 81.764 54.8058 81.6555 55.0238 81.6555 55.2554C 81.6555 55.487 81.764 55.705 81.9484 55.8439C 85.2004 58.5439 89.1555 59.9786 92.9348 61.7884C 94.9396 62.7987 97.0939 63.477 99.3142 63.7968C 103.65 64.3633 105.379 62.0091 103.826 57.9113C 103.269 56.4399 102.09 55.5055 101.328 54.2328C 101.313 54.107 101.276 53.985 101.218 53.8723z" stroke="none" fill="#D9885D" fill-rule="nonzero" />
    <path d="M106.553 31.9854C 106.734 31.9965 106.903 32.0812 107.021 32.22C 107.138 32.3589 107.194 32.5398 107.176 32.7211C 107.127 33.4768 107.698 34.129 108.45 34.1777C 109.203 34.2265 109.852 33.6534 109.9 32.8976C 109.896 32.6427 110.035 32.4071 110.26 32.2882C 110.484 32.1693 110.756 32.1872 110.964 32.3346C 111.171 32.4819 111.278 32.7337 111.241 32.9859C 111.096 34.4455 109.826 35.5271 108.368 35.4319C 106.911 35.3367 105.791 34.0989 105.836 32.6328C 105.843 32.4505 105.923 32.279 106.059 32.1571C 106.194 32.0352 106.372 31.9733 106.553 31.9854z" stroke="none" fill="#742DDB" fill-rule="nonzero" />
    <path transform="matrix(-1 -0 0 1 115.505 30.6091)"  d="M-1.68457 0C -1.68457 -0.9345211 -0.93036234 -1.6921 0 -1.6921C 0.93036234 -1.6921 1.68457 -0.9345211 1.68457 0C 1.68457 0.9345211 0.93036234 1.6921 0 1.6921C -0.93036234 1.6921 -1.68457 0.9345211 -1.68457 0" stroke="none" fill="#742DDB" fill-rule="nonzero" />
    <path transform="matrix(-1 -0 0 1 102.1 28.6232)"  d="M-1.77979 0C -1.77979 -0.9873416 -0.9829509 -1.78774 0 -1.78774C 0.9829509 -1.78774 1.77979 -0.9873416 1.77979 0C 1.77979 0.9873416 0.9829509 1.78774 0 1.78774C -0.9829509 1.78774 -1.77979 0.9873416 -1.77979 0" stroke="none" fill="#742DDB" fill-rule="nonzero" />
    <path d="M76.839 126.119C 77.4544 120.035 78.3043 113.068 79.4766 106.991" stroke="#742DDB" stroke-width="1.62468" stroke-linecap="square" fill="none" />
    <path d="M96.7665 16.5728C 93.683 19.8834 92.0864 26.2324 91.7055 25.791C 90.7889 24.4654 89.1335 23.8737 87.5893 24.3196C 86.7115 24.5543 86.0164 25.2274 85.7509 26.1C 85.2645 27.2651 85.1819 28.5606 85.5165 29.7785C 86.0878 31.7796 87.4574 32.6035 88.8637 33.4569C 89.6055 33.8929 90.1355 34.6168 90.3285 35.458C 91.5956 39.0114 91.4199 41.7556 90.5556 46.3095C 90.1821 48.1708 88.8564 48.9065 88.1093 49.782C 86.2416 51.9891 83.9272 53.2398 82.9164 54.1962C 86.2782 57.2787 90.5336 58.7869 94.5327 60.7218C 96.5401 61.7322 98.6967 62.4104 100.919 62.7302C 105.248 63.2967 106.977 60.9425 105.424 56.8447C 104.867 55.3733 100.956 51.7537 101.029 49.164C 101.136 48.3615 101.449 47.6008 101.937 46.9569C 102.566 46.262 103.392 45.7768 104.303 45.5665C 108.595 44.7351 111.422 44.8308 115.084 42.7856C 118.607 40.8507 120.497 37.1575 121.317 33.3981C 121.84 31.0714 122.183 28.7077 122.343 26.3281" stroke="#742DDB" stroke-width="1.62468" stroke-linecap="square" fill="none" />
    <path d="M116.257 33.9275C 116.118 34.3066 116.145 34.7271 116.332 35.0847C 116.519 35.4423 116.849 35.7035 117.238 35.8035C 117.59 35.8855 117.96 35.8149 118.257 35.609C 118.554 35.4032 118.751 35.0812 118.799 34.7221C 119.041 33.9128 118.865 33.1035 118.066 32.8755C 117.687 32.7702 117.282 32.8224 116.942 33.0203C 116.601 33.2181 116.354 33.545 116.257 33.9275z" stroke="none" fill="#F4B2C5" fill-rule="nonzero" fill-opacity="0.7490196" />
    <path transform="matrix(-0.990068 -0.140592 -0.13914 0.990273 98.5583 31.9386)"  d="M-2.22676 0C -2.22676 -0.98725325 -1.2298056 -1.78758 0 -1.78758C 1.2298056 -1.78758 2.22676 -0.98725325 2.22676 0C 2.22676 0.98725325 1.2298056 1.78758 0 1.78758C -1.2298056 1.78758 -2.22676 0.98725325 -2.22676 0" stroke="none" fill="#F4B2C5" fill-rule="nonzero" fill-opacity="0.7490196" />
    <path d="M85.9792 107.762C 99.6902 109.005 112.94 106.629 123.926 99.3823C 125.537 98.3155 127.632 97.2341 129.529 97.0796C 129.686 97.0689 129.83 96.9864 129.918 96.8557C 130.007 96.7251 130.031 96.5608 129.983 96.4101C 129.973 96.3617 129.947 96.3179 129.91 96.285C 129.588 95.9981 128.87 96.285 128.599 95.9539C 128.517 95.8298 128.55 95.6626 128.672 95.5787C 129.829 94.9975 131.118 94.8798 130.833 94.1074C 130.547 93.3349 128.401 94.7106 128.636 93.8793C 128.76 93.3349 130.1 92.761 129.412 92.121C 128.723 91.4809 126.629 94.0117 125.318 94.1C 124.732 94.1441 125.369 93.2834 125.501 92.8346C 125.633 92.3858 125.23 92.1725 124.695 92.6139C 124.078 93.0427 123.648 93.6931 123.494 94.4311C 123.201 96.2703 122.293 97.3076 119.7 97.749C 113.174 98.7275 102.693 98.6981 96.1452 97.9477C 94.1591 97.6972 92.2155 97.18 90.3664 96.4101C 88.6306 95.6008 85.3493 93.5482 84.551 90.9954C 83.0691 85.9949 83.3275 80.6365 85.2834 75.8033C 87.0412 72.4559 84.3166 66.3643 82.6686 63.2965C 81.6124 61.1006 79.7983 59.3647 77.5637 58.4114C 77.2483 58.2512 76.872 58.2708 76.5749 58.4629C 74.9343 59.8166 74.4728 60.9349 73.6452 62.2738C 70.862 66.688 68.5695 78.1501 68.2912 79.7981C 67.5588 84.2858 66.9508 90.164 68.9284 96.2997C 70.547 100.765 72.2902 103.495 76.3039 105.459C 77.8566 106.217 80.6032 107.232 85.9792 107.762z" stroke="none" fill="#D9885D" fill-rule="nonzero" />
    <path d="M132.224 93.7838C 132.36 93.7174 132.475 93.6126 132.553 93.4822" stroke="#742DDB" stroke-width="2.03085" stroke-linecap="square" fill="none" />
    <path d="M126.247 91.6724C 125.695 92.0836 125.316 92.6871 125.185 93.3645C 124.892 95.2111 123.991 96.241 121.391 96.6898C 114.865 97.6609 104.384 97.6315 97.8359 96.8884C 95.8503 96.631 93.9073 96.1116 92.057 95.3435C 90.3212 94.5342 87.0399 92.4816 86.2489 89.9361C 84.76 84.934 85.0185 79.571 86.9814 74.7367C 88.7318 71.3893 86.0072 65.2977 84.3593 62.2299C 83.0336 59.7726 81.3856 58.1762 79.3202 57.3522C 79.0061 57.1898 78.6299 57.2066 78.3314 57.3964C 76.6908 58.75 76.2294 59.8756 75.4017 61.2073C 72.6185 65.6214 70.326 77.0835 70.0477 78.7315C 69.3153 83.2192 68.7074 89.1048 70.6849 95.2331C 72.3036 99.6988 74.0467 102.428 78.0678 104.393C 79.6058 105.128 82.3524 106.166 87.7284 106.695C 101.439 107.939 114.689 105.562 125.675 98.3157C 127.34 97.1219 129.258 96.3336 131.278 96.013" stroke="#742DDB" stroke-width="1.62468" stroke-linecap="square" fill="none" />
    <path d="M131.104 91.054C 130.701 90.6714 129.924 91.2526 129.089 91.878" stroke="#742DDB" stroke-width="2.03085" stroke-linecap="square" fill="none" />
    <path d="M119.97 83.6242C 117.327 85.1383 114.285 85.8008 111.254 85.5223C 110.617 85.4708 110.617 84.4702 111.254 84.5217C 114.108 84.7941 116.975 84.1749 119.465 82.7487C 119.7 82.6249 119.99 82.708 120.125 82.9376C 120.26 83.1673 120.192 83.4628 119.97 83.6095L119.97 83.6095L119.97 83.6242z" stroke="#741CDB" stroke-width="0.812338" fill="#742DDB" fill-rule="nonzero" />
    <path d="M103.353 86.964C 98.0357 90.1274 91.6343 89.4432 85.8775 87.9645C 85.6244 87.8819 85.4806 87.6139 85.5511 87.3561C 85.6217 87.0983 85.8815 86.9418 86.1412 87.0007C 91.6197 88.4133 97.7721 89.1343 102.848 86.1032C 103.083 85.9794 103.373 86.0625 103.508 86.2921C 103.643 86.5218 103.575 86.8172 103.353 86.964z" stroke="#741CDB" stroke-width="0.812338" fill="#742DDB" fill-rule="nonzero" />
    <path d="M144.661 43.9662C 144.661 38.4222 140.763 35.6433 138.387 34.6157C 139.298 33.4557 140.161 30.5697 139.514 27.395C 139.021 24.9775 135.848 22.994 135.848 22.994C 136.495 21.1902 137.429 17.4384 134.722 14.487C 131.651 11.1397 127.654 11.4502 127.654 11.4502C 127.654 11.4502 128.373 6.32754 122.335 3.36948C 119.706 2.08132 116.195 2.74146 114.453 4.09779C 113.041 2.09041 110.725 0.890099 108.298 1.00795C 104.676 1.18336 102.237 3.42099 102.163 5.39656C 100.362 4.02205 99.6188 3.97994 97.4626 3.87178C 95.3792 3.76696 92.6106 5.1345 91.9853 7.25064C 91.8359 7.75537 91.9729 8.37945 91.2358 8.57607C 91.0122 8.63575 90.7768 8.62636 90.5504 8.58001C 87.8872 8.03166 77.5008 8.04191 75.9051 10.2535C 74.3749 12.3742 74.3755 15.5631 76.1095 17.519C 73.2986 18.3042 70.4308 19.5845 69.5465 22.3756C 68.6618 25.1668 68.9525 28.376 71.3067 30.1061C 69.4828 31.0474 67.8569 32.5086 67.0779 34.4129C 66.2992 36.317 66.502 38.6864 67.881 40.2097C 66.2784 41.2285 64.5176 42.4906 63.4821 44.0863C 61.5375 47.0825 62.7224 53.51 65.7822 55.3417C 66.6892 55.8846 68.5595 56.7341 68.5595 56.7341C 68.5595 56.7341 76.7906 60.2966 77.052 61.0888C 78.6221 65.8464 84.0113 63.527 86.5399 62.676C 87.1556 62.4688 87.3304 60.8725 87.8335 58.8521C 88.0861 57.8387 81.5551 54.2182 82.379 53.6682C 86.5311 50.8962 86.6197 51.0556 87.9151 49.5102C 90.3589 46.5943 89.9766 34.2642 87.9151 34.2642C 87.9151 34.2642 83.763 31.4921 83.763 28.7201C 83.763 25.9481 85.147 23.1761 87.9151 23.1761C 90.6832 23.1761 92.0672 24.5621 92.0672 24.5621C 92.0672 24.5621 94.7065 18.108 96.2193 16.2461C 97.4332 14.7522 99.7894 17.7829 100.371 17.6321C 100.373 17.6318 102.281 17.7271 105.504 17.9216C 105.521 19.0995 105.993 20.2765 106.842 21.0945C 108.087 22.2945 110.068 22.6505 111.651 21.9594C 111.672 21.95 112.574 21.7049 112.595 21.6952C 113.285 21.997 113.831 24.4752 116.262 24.906C 118.094 25.2307 119.644 24.8848 120.578 23.892C 120.883 23.5679 121.278 23.3441 121.699 23.4886C 121.804 23.5246 121.915 23.5658 122.033 23.6098C 122.736 23.8726 123.412 24.3886 123.489 25.1354C 123.504 25.2819 123.504 25.428 123.485 25.5734C 122.516 32.8781 121.986 41.8331 111.444 45.3522C 107.292 46.7382 104.524 45.3522 103.14 48.1242C 101.755 50.8962 103.732 53.1401 104.524 53.6682C 108.676 56.4403 111.929 59.1062 115.596 61.9843C 117.653 63.5988 120.278 65.5819 122.516 66.1423C 128.052 67.5283 133.446 67.7426 136.356 63.3703C 139.124 59.2123 134.972 52.2822 134.972 52.2822C 134.972 52.2822 144.661 49.5102 144.661 43.9662z" stroke="none" fill="#833E16" fill-rule="nonzero" />
    <path d="M100.372 17.6318C 100.374 17.6315 102.282 17.7269 105.504 17.9214C 105.522 19.0993 105.993 20.2763 106.842 21.0942C 108.088 22.2942 110.069 22.6502 111.651 21.9592C 111.673 21.9498 112.575 21.7047 112.596 21.695C 113.286 21.9967 113.831 24.4749 116.262 24.9057C 118.095 25.2305 119.645 24.8845 120.579 23.8917C 120.734 23.7269 120.876 23.537 121.02 23.3516" stroke="#741CDB" stroke-width="1.77797" stroke-linecap="square" fill="none" />
    <path d="M71.3061 30.1061C 68.9519 28.376 68.6613 25.1668 69.5459 22.3756C 70.4302 19.5845 73.2981 18.3042 76.1089 17.519C 74.375 15.5631 74.3744 12.3742 75.9046 10.2535C 77.5003 8.04191 87.8866 8.03166 90.5499 8.58001C 90.7762 8.62636 91.0116 8.63576 91.2353 8.57607C 91.9723 8.37946 91.8353 7.75537 91.9847 7.25064C 92.6101 5.1345 95.3786 3.76696 97.4621 3.87178C 99.6182 3.97994 100.361 4.02205 102.162 5.39656C 102.236 3.42099 104.675 1.18336 108.297 1.00795C 110.724 0.890099 113.041 2.09041 114.453 4.09779C 116.195 2.74146 119.705 2.08132 122.334 3.36948C 128.372 6.32754 127.654 11.4502 127.654 11.4502C 127.654 11.4502 131.65 11.1397 134.721 14.487C 137.429 17.4384 136.494 21.1902 135.848 22.994C 135.848 22.994 139.021 24.9775 139.513 27.3951C 140.16 30.5697 139.298 33.4557 138.387 34.6157C 140.763 35.6433 144.66 38.4222 144.66 43.9662C 144.66 49.5102 134.972 52.2822 134.972 52.2822C 134.972 52.2822 139.124 59.2123 136.356 63.3703" stroke="#741CDB" stroke-width="1.77797" stroke-linecap="square" fill="none" />
    <path d="M45.0717 162.941L46.2931 163.603C 46.4618 163.694 46.567 163.869 46.567 164.059C 46.567 164.249 46.4618 164.425 46.2931 164.516L46.2931 164.516L45.0717 165.177C 43.9414 165.79 43.0165 166.706 42.3977 167.825L42.3977 167.825L41.7295 169.035C 41.6375 169.202 41.4603 169.306 41.2684 169.306C 41.0765 169.306 40.8993 169.202 40.8073 169.035L40.8073 169.035L40.1391 167.825C 39.5203 166.706 38.5955 165.79 37.4651 165.177L37.4651 165.177L36.2438 164.516C 36.0745 164.425 35.9698 164.249 35.9698 164.059C 35.9698 163.869 36.075 163.694 36.2438 163.603L36.2438 163.603L37.4651 162.941C 38.5955 162.328 39.5203 161.412 40.1391 160.293L40.1391 160.293L40.8073 159.084C 40.9913 158.749 41.5455 158.749 41.7295 159.084L41.7295 159.084L42.3977 160.293C 43.0165 161.412 43.9414 162.328 45.0717 162.941zM41.4748 167.326C 42.1898 166.031 43.2592 164.972 44.5668 164.264L44.5668 164.264L44.9453 164.06L44.5673 163.855C 43.2597 163.147 42.1898 162.088 41.4753 160.793L41.4753 160.793L41.2682 160.419L41.061 160.792C 40.346 162.087 39.2766 163.146 37.9691 163.854L37.9691 163.854L37.591 164.059L37.9691 164.264C 39.2766 164.972 40.3465 166.031 41.061 167.326L41.061 167.326L41.2682 167.7L41.4748 167.326z" stroke="none" fill="#741CDB" fill-rule="nonzero" />
    <path d="M46.2931 163.603L45.9968 164.149L45.9976 164.15L46.2931 163.603zM45.0717 162.941L44.7753 163.488L44.7755 163.488L45.0717 162.941zM46.2931 164.516L45.9976 163.968L45.9968 163.969L46.2931 164.516zM45.0717 165.177L44.7755 164.631L44.7753 164.631L45.0717 165.177zM42.3977 167.825L41.8534 167.524L42.3977 167.825zM41.7295 169.035L41.1851 168.734L41.1843 168.735L41.7295 169.035zM40.8073 169.035L41.3521 168.735L41.3517 168.734L40.8073 169.035zM40.1391 167.825L40.6834 167.524L40.1391 167.825zM37.4651 165.177L37.7615 164.631L37.7614 164.631L37.4651 165.177zM36.2438 164.516L36.54 163.969L36.5385 163.968L36.2438 164.516zM36.2438 163.603L36.5392 164.15L36.54 164.149L36.2438 163.603zM37.4651 162.941L37.7614 163.488L37.7615 163.488L37.4651 162.941zM40.1391 160.293L40.6834 160.594L40.1391 160.293zM40.8073 159.084L41.3517 159.384L41.3523 159.383L40.8073 159.084zM41.7295 159.084L41.1845 159.383L41.1851 159.384L41.7295 159.084zM42.3977 160.293L41.8534 160.594L42.3977 160.293zM44.5668 164.264L44.271 163.717L44.2708 163.717L44.5668 164.264zM41.4748 167.326L42.0191 167.627L42.0192 167.627L41.4748 167.326zM44.9453 164.06L45.241 164.607L46.2513 164.061L45.2419 163.513L44.9453 164.06zM44.5673 163.855L44.8639 163.308L44.8634 163.308L44.5673 163.855zM41.4753 160.793L42.0198 160.492L42.0195 160.492L41.4753 160.793zM41.2682 160.419L41.8123 160.117L41.2689 159.136L40.7244 160.117L41.2682 160.419zM41.061 160.792L40.5172 160.49L40.5166 160.491L41.061 160.792zM37.9691 163.854L37.6731 163.307L37.6724 163.307L37.9691 163.854zM37.591 164.059L37.2944 163.512L36.287 164.059L37.2944 164.605L37.591 164.059zM37.9691 164.264L37.6724 164.81L37.6729 164.811L37.9691 164.264zM41.061 167.326L40.5165 167.626L40.5169 167.627L41.061 167.326zM41.2682 167.7L40.724 168.001L41.2685 168.985L41.8125 168.001L41.2682 167.7zM46.5893 163.056L45.368 162.394L44.7755 163.488L45.9968 164.149L46.5893 163.056zM47.1889 164.059C 47.1889 163.638 46.9564 163.254 46.5885 163.055L46.5885 163.055L45.9976 164.15C 45.9673 164.133 45.945 164.1 45.945 164.059L45.945 164.059L47.1889 164.059zM46.5885 165.063C 46.9564 164.864 47.1889 164.48 47.1889 164.059L47.1889 164.059L45.945 164.059C 45.945 164.018 45.9673 163.985 45.9976 163.968L45.9976 163.968L46.5885 165.063zM45.368 165.724L46.5893 165.063L45.9968 163.969L44.7755 164.631L45.368 165.724zM42.942 168.126C 43.503 167.111 44.3416 166.281 45.3681 165.724L45.3681 165.724L44.7753 164.631C 43.5411 165.3 42.53 166.301 41.8534 167.524L41.8534 167.524L42.942 168.126zM42.2739 169.335L42.9421 168.126L41.8534 167.524L41.1851 168.734L42.2739 169.335zM41.2684 169.928C 41.684 169.928 42.0719 169.703 42.2747 169.334L42.2747 169.334L41.1843 168.735C 41.2031 168.701 41.2366 168.684 41.2684 168.684L41.2684 168.684L41.2684 169.928zM40.2625 169.335C 40.4649 169.702 40.8519 169.928 41.2684 169.928L41.2684 169.928L41.2684 168.684C 41.3012 168.684 41.3338 168.701 41.3521 168.735L41.3521 168.735L40.2625 169.335zM39.5947 168.126L40.263 169.335L41.3517 168.734L40.6834 167.524L39.5947 168.126zM37.1687 165.724C 38.1953 166.281 39.0338 167.111 39.5948 168.126L39.5948 168.126L40.6834 167.524C 40.0068 166.301 38.9957 165.3 37.7615 164.631L37.7615 164.631L37.1687 165.724zM35.9475 165.063L37.1688 165.724L37.7614 164.631L36.54 163.969L35.9475 165.063zM35.3479 164.059C 35.3479 164.479 35.5792 164.864 35.949 165.063L35.949 165.063L36.5385 163.968C 36.5698 163.985 36.5918 164.019 36.5918 164.059L36.5918 164.059L35.3479 164.059zM35.9483 163.055C 35.5804 163.254 35.3479 163.638 35.3479 164.059L35.3479 164.059L36.5918 164.059C 36.5918 164.1 36.5696 164.133 36.5392 164.15L36.5392 164.15L35.9483 163.055zM37.1688 162.394L35.9475 163.056L36.54 164.149L37.7614 163.488L37.1688 162.394zM39.5948 159.992C 39.0338 161.007 38.1953 161.838 37.1687 162.394L37.1687 162.394L37.7615 163.488C 38.9957 162.819 40.0068 161.818 40.6834 160.594L40.6834 160.594L39.5948 159.992zM40.263 158.783L39.5947 159.992L40.6834 160.594L41.3517 159.384L40.263 158.783zM42.2745 158.784C 42.0486 158.373 41.6236 158.211 41.2684 158.211C 40.9132 158.211 40.4882 158.373 40.2623 158.784L40.2623 158.784L41.3523 159.383C 41.333 159.419 41.3064 159.439 41.2894 159.448C 41.2816 159.452 41.276 159.453 41.2732 159.454C 41.2705 159.455 41.269 159.455 41.2684 159.455C 41.2678 159.455 41.2664 159.455 41.2636 159.454C 41.2609 159.453 41.2553 159.452 41.2474 159.448C 41.2304 159.439 41.2039 159.419 41.1845 159.383L41.1845 159.383L42.2745 158.784zM42.9421 159.992L42.2739 158.783L41.1851 159.384L41.8534 160.594L42.9421 159.992zM45.3681 162.394C 44.3416 161.838 43.503 161.007 42.942 159.992L42.942 159.992L41.8534 160.594C 42.53 161.818 43.5411 162.819 44.7753 163.488L44.7753 163.488L45.3681 162.394zM44.2708 163.717C 42.859 164.481 41.7032 165.626 40.9304 167.025L40.9304 167.025L42.0192 167.627C 42.6765 166.437 43.6594 165.462 44.8627 164.811L44.8627 164.811L44.2708 163.717zM44.6496 163.513L44.271 163.717L44.8625 164.811L45.241 164.607L44.6496 163.513zM44.2707 164.401L44.6487 164.606L45.2419 163.513L44.8639 163.308L44.2707 164.401zM40.9308 161.093C 41.7032 162.493 42.8597 163.637 44.2711 164.402L44.2711 164.402L44.8634 163.308C 43.6598 162.656 42.6764 161.682 42.0198 160.492L42.0198 160.492L40.9308 161.093zM40.724 160.72L40.9312 161.094L42.0195 160.492L41.8123 160.117L40.724 160.72zM41.6048 161.094L41.812 160.72L40.7244 160.117L40.5172 160.49L41.6048 161.094zM38.265 164.401C 39.6768 163.637 40.8327 162.492 41.6055 161.093L41.6055 161.093L40.5166 160.491C 39.8593 161.681 38.8764 162.655 37.6731 163.307L37.6731 163.307L38.265 164.401zM37.8877 164.605L38.2657 164.4L37.6724 163.307L37.2944 163.512L37.8877 164.605zM38.2657 163.717L37.8877 163.512L37.2944 164.605L37.6724 164.81L38.2657 163.717zM41.6055 167.025C 40.8331 165.625 39.6767 164.481 38.2652 163.717L38.2652 163.717L37.6729 164.811C 38.8766 165.462 39.8599 166.436 40.5165 167.626L40.5165 167.626L41.6055 167.025zM41.8123 167.399L41.6052 167.024L40.5169 167.627L40.724 168.001L41.8123 167.399zM40.9305 167.025L40.7239 167.399L41.8125 168.001L42.0191 167.627L40.9305 167.025z" stroke="none" fill="#741CDB" fill-rule="nonzero" />
    <path d="M174.102 206.108L175.323 206.77C 175.492 206.861 175.597 207.037 175.597 207.227C 175.597 207.417 175.492 207.592 175.323 207.683L175.323 207.683L174.102 208.345C 172.972 208.958 172.047 209.873 171.428 210.993L171.428 210.993L170.76 212.202C 170.668 212.37 170.49 212.473 170.299 212.473C 170.107 212.473 169.929 212.369 169.837 212.202L169.837 212.202L169.169 210.993C 168.55 209.873 167.626 208.958 166.495 208.345L166.495 208.345L165.274 207.683C 165.105 207.592 165 207.417 165 207.227C 165 207.037 165.105 206.861 165.274 206.77L165.274 206.77L166.495 206.108C 167.626 205.496 168.55 204.58 169.169 203.46L169.169 203.46L169.837 202.251C 170.021 201.916 170.576 201.916 170.76 202.251L170.76 202.251L171.428 203.46C 172.047 204.58 172.972 205.496 174.102 206.108zM170.505 210.493C 171.22 209.199 172.289 208.139 173.597 207.432L173.597 207.432L173.975 207.227L173.597 207.022C 172.29 206.314 171.22 205.255 170.505 203.96L170.505 203.96L170.298 203.586L170.091 203.959C 169.376 205.254 168.307 206.313 166.999 207.021L166.999 207.021L166.621 207.226L166.999 207.431C 168.307 208.139 169.377 209.198 170.091 210.493L170.091 210.493L170.298 210.867L170.505 210.493z" stroke="none" fill="#741CDB" fill-rule="nonzero" />
    <path d="M175.323 206.77L175.027 207.317L175.028 207.317L175.323 206.77zM174.102 206.108L173.805 206.655L173.806 206.655L174.102 206.108zM175.323 207.683L175.028 207.136L175.027 207.136L175.323 207.683zM174.102 208.345L173.806 207.798L173.805 207.798L174.102 208.345zM171.428 210.993L170.884 210.692L171.428 210.993zM170.76 212.202L170.215 211.901L170.214 211.903L170.76 212.202zM169.837 212.202L170.382 211.902L170.382 211.901L169.837 212.202zM169.169 210.993L169.714 210.692L169.169 210.993zM166.495 208.345L166.792 207.798L166.495 208.345zM165.274 207.683L165.57 207.136L165.569 207.135L165.274 207.683zM165.274 206.77L165.569 207.317L165.57 207.317L165.274 206.77zM166.495 206.108L166.792 206.655L166.495 206.108zM169.169 203.46L169.714 203.761L169.169 203.46zM169.837 202.251L170.382 202.552L170.382 202.551L169.837 202.251zM170.76 202.251L170.215 202.551L170.215 202.552L170.76 202.251zM171.428 203.46L170.884 203.761L171.428 203.46zM173.597 207.432L173.301 206.885L173.597 207.432zM170.505 210.493L171.049 210.794L170.505 210.493zM173.975 207.227L174.271 207.774L175.281 207.228L174.272 206.68L173.975 207.227zM173.597 207.022L173.894 206.475L173.893 206.475L173.597 207.022zM170.505 203.96L171.05 203.66L171.05 203.659L170.505 203.96zM170.298 203.586L170.842 203.285L170.299 202.303L169.754 203.284L170.298 203.586zM170.091 203.959L169.547 203.657L169.547 203.659L170.091 203.959zM166.999 207.021L166.703 206.474L166.702 206.474L166.999 207.021zM166.621 207.226L166.324 206.679L165.317 207.226L166.324 207.773L166.621 207.226zM166.999 207.431L166.702 207.978L166.703 207.978L166.999 207.431zM170.091 210.493L169.547 210.793L169.547 210.794L170.091 210.493zM170.298 210.867L169.754 211.168L170.299 212.152L170.843 211.168L170.298 210.867zM175.619 206.223L174.398 205.561L173.806 206.655L175.027 207.317L175.619 206.223zM176.219 207.227C 176.219 206.806 175.987 206.421 175.619 206.223L175.619 206.223L175.028 207.317C 174.997 207.301 174.975 207.267 174.975 207.227L174.975 207.227L176.219 207.227zM175.619 208.23C 175.987 208.032 176.219 207.647 176.219 207.227L176.219 207.227L174.975 207.227C 174.975 207.186 174.997 207.152 175.028 207.136L175.028 207.136L175.619 208.23zM174.398 208.892L175.619 208.23L175.027 207.136L173.806 207.798L174.398 208.892zM171.972 211.294C 172.533 210.279 173.372 209.448 174.398 208.892L174.398 208.892L173.805 207.798C 172.571 208.467 171.56 209.468 170.884 210.692L170.884 210.692L171.972 211.294zM171.304 212.503L171.972 211.293L170.884 210.692L170.215 211.901L171.304 212.503zM170.299 213.095C 170.714 213.095 171.102 212.871 171.305 212.501L171.305 212.501L170.214 211.903C 170.233 211.869 170.267 211.851 170.299 211.851L170.299 211.851L170.299 213.095zM169.293 212.502C 169.495 212.869 169.882 213.095 170.299 213.095L170.299 213.095L170.299 211.851C 170.331 211.851 170.364 211.869 170.382 211.902L170.382 211.902L169.293 212.502zM168.625 211.293L169.293 212.503L170.382 211.901L169.714 210.692L168.625 211.293zM166.199 208.892C 167.225 209.448 168.064 210.279 168.625 211.294L168.625 211.294L169.714 210.692C 169.037 209.468 168.026 208.467 166.792 207.798L166.792 207.798L166.199 208.892zM164.978 208.23L166.199 208.892L166.792 207.798L165.57 207.136L164.978 208.23zM164.378 207.227C 164.378 207.646 164.609 208.032 164.979 208.231L164.979 208.231L165.569 207.135C 165.6 207.152 165.622 207.187 165.622 207.227L165.622 207.227L164.378 207.227zM164.978 206.223C 164.611 206.421 164.378 206.806 164.378 207.227L164.378 207.227L165.622 207.227C 165.622 207.267 165.6 207.301 165.569 207.317L165.569 207.317L164.978 206.223zM166.199 205.561L164.978 206.223L165.57 207.317L166.792 206.655L166.199 205.561zM168.625 203.16C 168.064 204.174 167.225 205.005 166.199 205.562L166.199 205.562L166.792 206.655C 168.026 205.986 169.037 204.985 169.714 203.761L169.714 203.761L168.625 203.16zM169.293 201.95L168.625 203.16L169.714 203.761L170.382 202.552L169.293 201.95zM171.305 201.951C 171.079 201.54 170.654 201.378 170.299 201.378C 169.943 201.378 169.518 201.54 169.292 201.951L169.292 201.951L170.382 202.551C 170.363 202.586 170.337 202.606 170.32 202.615C 170.312 202.619 170.306 202.621 170.303 202.621C 170.301 202.622 170.299 202.622 170.299 202.622C 170.298 202.622 170.297 202.622 170.294 202.621C 170.291 202.621 170.285 202.619 170.278 202.615C 170.261 202.606 170.234 202.586 170.215 202.551L170.215 202.551L171.305 201.951zM171.972 203.16L171.304 201.95L170.215 202.552L170.884 203.761L171.972 203.16zM174.398 205.562C 173.372 205.005 172.533 204.174 171.972 203.16L171.972 203.16L170.884 203.761C 171.56 204.985 172.571 205.986 173.805 206.655L173.805 206.655L174.398 205.562zM173.301 206.885C 171.889 207.649 170.733 208.793 169.96 210.193L169.96 210.193L171.049 210.794C 171.707 209.604 172.689 208.63 173.893 207.979L173.893 207.979L173.301 206.885zM173.68 206.68L173.301 206.885L173.893 207.979L174.271 207.774L173.68 206.68zM173.301 207.569L173.679 207.774L174.272 206.68L173.894 206.475L173.301 207.569zM169.961 204.261C 170.733 205.66 171.89 206.805 173.301 207.569L173.301 207.569L173.893 206.475C 172.69 205.823 171.706 204.85 171.05 203.66L171.05 203.66L169.961 204.261zM169.754 203.887L169.961 204.261L171.05 203.659L170.842 203.285L169.754 203.887zM170.635 204.261L170.842 203.888L169.754 203.284L169.547 203.657L170.635 204.261zM167.295 207.568C 168.707 206.804 169.863 205.659 170.636 204.26L170.636 204.26L169.547 203.659C 168.889 204.849 167.906 205.823 166.703 206.474L166.703 206.474L167.295 207.568zM166.918 207.773L167.296 207.568L166.702 206.474L166.324 206.679L166.918 207.773zM167.296 206.885L166.918 206.679L166.324 207.773L166.702 207.978L167.296 206.885zM170.636 210.192C 169.863 208.793 168.707 207.649 167.295 206.884L167.295 206.884L166.703 207.978C 167.907 208.63 168.89 209.604 169.547 210.793L169.547 210.793L170.636 210.192zM170.842 210.566L170.635 210.192L169.547 210.794L169.754 211.168L170.842 210.566zM169.961 210.193L169.754 210.566L170.843 211.168L171.049 210.794L169.961 210.193z" stroke="none" fill="#741CDB" fill-rule="nonzero" />
    <path d="M13.0932 216.707C 17.7325 216.707 21.4941 220.475 21.4941 225.122C 21.4941 229.77 17.7325 233.538 13.0932 233.538C 8.45398 233.538 4.69238 229.77 4.69238 225.122C 4.69238 220.475 8.45398 216.707 13.0932 216.707z" stroke="none" fill="#F79351" fill-rule="nonzero" />
    <path d="M13.0841 228.446C 12.2412 228.73 11.339 228.884 10.4009 228.884C 5.7616 228.884 2 225.117 2 220.469C 2 215.82 5.7616 212.053 10.4009 212.053C 15.0401 212.053 18.8017 215.82 18.8017 220.469" stroke="#741CDB" stroke-width="2.61755" stroke-linecap="square" fill="none" />
    <path d="M185.906 168.387C 189.466 166.729 193.694 168.275 195.349 171.841C 197.005 175.407 195.461 179.642 191.901 181.301C 188.342 182.958 184.113 181.412 182.458 177.846C 180.803 174.28 182.347 170.045 185.906 168.387z" stroke="none" fill="#F6FFFF" fill-rule="nonzero" />
    <path d="M188.667 164.484C 191.93 162.964 195.806 164.382 197.323 167.651C 198.841 170.92 197.425 174.801 194.162 176.321C 190.899 177.841 187.024 176.424 185.506 173.155C 183.989 169.886 185.404 166.004 188.667 164.484z" stroke="#741CDB" stroke-width="2.61755" fill="none" />
    <path d="M215.303 159.48C 215.607 160.134 216.385 160.419 217.038 160.115C 217.692 159.811 217.976 159.031 217.672 158.376C 217.369 157.722 216.59 157.437 215.937 157.742C 215.283 158.046 214.999 158.826 215.303 159.48z" stroke="none" fill="#741CDB" fill-rule="nonzero" />
    <path d="M29.0628 175.257C 29.7786 175.257 30.361 174.67 30.361 173.948C 30.361 173.227 29.7786 172.64 29.0628 172.64C 28.3471 172.64 27.7646 173.227 27.7646 173.948C 27.7646 174.67 28.3471 175.257 29.0628 175.257z" stroke="none" fill="#741CDB" fill-rule="nonzero" />
    <path d="M26.177 108.391C 28.8887 108.391 31.0872 110.607 31.0872 113.341C 31.0872 116.075 28.8887 118.29 26.177 118.29C 23.466 118.29 21.2676 116.075 21.2676 113.341C 21.2676 110.607 23.466 108.391 26.177 108.391z" stroke="none" fill="#FFDD97" fill-rule="nonzero" />
    <path d="M22.8294 106.106C 25.5411 106.106 27.7395 108.323 27.7395 111.057C 27.7395 113.79 25.5411 116.006 22.8294 116.006C 20.1183 116.006 17.9199 113.79 17.9199 111.057C 17.9199 108.323 20.1183 106.106 22.8294 106.106z" stroke="#741CDB" stroke-width="2.61755" fill="none" />
    <path d="M191.07 105.269C 188.501 106.606 181.497 108.962 181.2 109.062C 180.992 109.132 180.773 109.126 180.583 109.045C 180.577 109.044 180.571 109.041 180.565 109.039C 180.377 108.97 180.211 108.841 180.1 108.658C 179.936 108.389 176.074 102.048 174.959 99.3598C 173.737 96.4113 174.897 93.2409 177.658 91.9849C 180.475 90.7025 184.051 91.8638 185.199 94.7512C 185.233 94.8364 185.287 94.9995 185.336 95.1562C 185.398 95.3513 185.63 95.4366 185.802 95.3271C 185.94 95.2388 186.085 95.1484 186.165 95.1051C 188.887 93.6377 192.366 95.0642 193.707 97.8715C 195.02 100.622 193.887 103.802 191.07 105.269z" stroke="none" fill="#FF829B" fill-rule="nonzero" />
    <path d="M186.449 106.553C 185.382 106.926 184.63 107.179 184.537 107.21C 184.329 107.28 184.11 107.274 183.92 107.194C 183.914 107.192 183.908 107.19 183.901 107.188C 183.714 107.119 183.548 106.989 183.437 106.806C 183.273 106.538 179.411 100.197 178.296 97.5083C 177.074 94.5597 178.234 91.3894 180.994 90.1332C 183.812 88.8509 187.388 90.0123 188.536 92.8995C 188.614 93.0951 188.794 93.6996 188.794 93.6996C 188.794 93.6996 189.318 93.353 189.502 93.2536C 192.223 91.7861 195.703 93.2127 197.044 96.02C 198.357 98.7706 197.224 101.951 194.407 103.417" stroke="#741CDB" stroke-width="2.29036" stroke-linecap="square" fill="none" />
</g>
</svg>